<svg width="49" height="49" viewBox="0 0 49 49" fill="none" xmlns="http://www.w3.org/2000/svg">
<g clip-path="url(#clip0_1_1237)">
<path d="M24.5597 48.1009C37.8249 48.1009 48.5784 37.3473 48.5784 24.0822C48.5784 10.817 37.8249 0.0634766 24.5597 0.0634766C11.2946 0.0634766 0.541016 10.817 0.541016 24.0822C0.541016 37.3473 11.2946 48.1009 24.5597 48.1009Z" fill="url(#paint0_linear_1_1237)"/>
<path fill-rule="evenodd" clip-rule="evenodd" d="M11.391 23.8203C18.3871 20.7525 23.0636 18.7696 25.4206 17.7969C32.08 15.0284 33.4642 14.5421 34.3621 14.5046C34.5492 14.5046 34.9981 14.5421 35.2974 14.7665C35.5219 14.9536 35.5967 15.2155 35.6342 15.4025C35.6716 15.5896 35.709 16.0011 35.6716 16.3378C35.2974 20.1165 33.7635 29.3573 32.9405 33.5849C32.6038 35.3807 31.9303 35.9793 31.2943 36.0541C29.9101 36.1664 28.8251 35.1188 27.4783 34.2583C25.3832 32.8741 24.186 32.0136 22.1283 30.6668C19.7713 29.0954 21.3052 28.235 22.6521 26.8507C22.9888 26.4766 29.1618 20.9021 29.2741 20.3784C29.2741 20.3035 29.3115 20.0791 29.1618 19.9668C29.0122 19.8546 28.8251 19.892 28.6755 19.9294C28.451 19.9668 25.0839 22.2116 18.5367 26.6262C17.564 27.2997 16.7035 27.5989 15.9179 27.5989C15.0574 27.5989 13.4112 27.1126 12.1766 26.7011C10.6801 26.2147 9.48295 25.9528 9.59519 25.1297C9.67001 24.7182 10.2686 24.2693 11.391 23.8203Z" fill="white"/>
</g>
<defs>
<linearGradient id="paint0_linear_1_1237" x1="0.541016" y1="24.0648" x2="48.5437" y2="24.0648" gradientUnits="userSpaceOnUse">
<stop stop-color="#2AABEE"/>
<stop offset="1" stop-color="#229ED9"/>
</linearGradient>
<clipPath id="clip0_1_1237">
<rect width="48" height="48" fill="white" transform="translate(0.541016 0.0634766)"/>
</clipPath>
</defs>
</svg>
