<svg width="82" height="89" viewBox="0 0 82 89" fill="none" xmlns="http://www.w3.org/2000/svg">
<path d="M32.1086 0.650461L1.86528 23.3693C1.1794 23.8922 0.726882 24.664 0.605572 25.5179C0.484262 26.3717 0.703914 27.239 1.21702 27.9322L45.5 86.8815C46.0235 87.5664 46.7952 88.0181 47.6488 88.1394C48.5023 88.2606 49.3692 88.0417 50.0629 87.5298L80.3061 64.8109C80.991 64.2873 81.4427 63.5156 81.564 62.6621C81.6853 61.8086 81.4663 60.9416 80.9544 60.248L36.6715 1.29872C36.1479 0.613863 35.3762 0.162127 34.5227 0.0408695C33.6692 -0.0803879 32.8022 0.138538 32.1086 0.650461ZM16.3147 18.0873L24.5558 11.8965C24.6545 11.8224 24.7786 11.7905 24.9009 11.8078C25.0231 11.8252 25.1334 11.8904 25.2076 11.9891C25.2818 12.0879 25.3137 12.212 25.2963 12.3342C25.2789 12.4565 25.2137 12.5668 25.115 12.641L16.8739 18.8317C16.7752 18.9059 16.6511 18.9378 16.5288 18.9204C16.4066 18.903 16.2962 18.8378 16.2221 18.7391C16.1479 18.6404 16.116 18.5162 16.1334 18.394C16.1508 18.2718 16.216 18.1614 16.3147 18.0873ZM14.5764 19.3931C14.65 19.3378 14.7384 19.3055 14.8303 19.3004C14.9223 19.2954 15.0136 19.3177 15.0929 19.3645C15.1722 19.4114 15.2358 19.4807 15.2756 19.5637C15.3155 19.6467 15.3299 19.7396 15.3169 19.8308C15.304 19.9219 15.2643 20.0072 15.2029 20.0758C15.1415 20.1444 15.0611 20.1933 14.9719 20.2162C14.8827 20.2391 14.7887 20.2351 14.7019 20.2046C14.615 20.1741 14.5391 20.1185 14.4838 20.0449C14.411 19.9481 14.3788 19.8268 14.394 19.7067C14.4092 19.5865 14.4706 19.4771 14.5652 19.4015L14.5764 19.3931ZM62.2748 72.5566C61.7836 72.9256 61.194 73.1406 60.5806 73.1744C59.9672 73.2082 59.3575 73.0593 58.8287 72.7465C58.3 72.4337 57.8759 71.9711 57.6101 71.4172C57.3444 70.8633 57.2489 70.243 57.3358 69.6348C57.4226 69.0266 57.6879 68.4579 58.0981 68.0006C58.5084 67.5432 59.045 67.2178 59.6402 67.0656C60.2354 66.9133 60.8623 66.941 61.4418 67.1452C62.0212 67.3494 62.5271 67.7208 62.8953 68.2126C63.3885 68.8711 63.6001 69.6985 63.4838 70.513C63.3675 71.3275 62.9326 72.0625 62.2748 72.5566ZM70.5137 55.1238L43.4753 75.4352L8.5875 28.9927L35.6259 8.6813L70.5137 55.1238Z" fill="#E6E6E6"/>
</svg>
